<svg id="icon" height="512" viewBox="0 0 128 128" width="512" xmlns="http://www.w3.org/2000/svg"><path d="m107.111 116.031 19.889-4.644c-4.788-10.915-15.326-68.091-19.775-80.279s-21.786-12.946-21.786-12.946l-9.348-7.162a12.276 12.276 0 0 0 -7.463-2.53h-9.256a12.275 12.275 0 0 0 -7.463 2.53l-9.348 7.159s-17.336.759-21.785 12.947-14.987 69.366-19.776 80.281l19.889 4.643 13.042-51.048s4.224 24.2-3.676 49.7a56.29 56.29 0 0 0 22.635 4.837c8.635-.137 10.659-7.832 11.11-12.316.45 4.484 2.474 12.179 11.11 12.316a56.291 56.291 0 0 0 22.635-4.837c-7.327-27.8-3.676-49.7-3.676-49.7z" fill="#ef5361"/><path d="m75.807 120.526c-.237 0-.474 0-.713-.005-5.4-.085-9.286-3.1-11.094-8.44-1.808 5.339-5.69 8.354-11.094 8.44a56.677 56.677 0 0 1 -23.085-4.936 1 1 0 0 1 -.521-1.2c5.578-18.01 5.03-35.513 4.274-43.972l-11.717 45.865a1 1 0 0 1 -1.2.726l-19.885-4.643a1 1 0 0 1 -.688-1.375c2.535-5.777 6.74-24.875 10.807-43.345 3.53-16.032 6.865-31.176 8.945-36.875 4.34-11.885 19.849-13.414 22.36-13.584l9.1-6.973a13.345 13.345 0 0 1 8.071-2.735h9.256a13.345 13.345 0 0 1 8.077 2.735l9.1 6.973c2.512.17 18.021 1.7 22.36 13.584 2.08 5.7 5.416 20.845 8.946 36.879 4.066 18.467 8.271 37.563 10.806 43.34a1 1 0 0 1 -.688 1.375l-19.885 4.64a1 1 0 0 1 -1.2-.726l-11.66-45.645a137.165 137.165 0 0 0 4.232 43.8 1 1 0 0 1 -.533 1.156 56.936 56.936 0 0 1 -22.371 4.941zm-11.807-14.326a1 1 0 0 1 1 .9c.517 5.144 2.692 11.3 10.13 11.417a55.9 55.9 0 0 0 21.439-4.4c-7.013-27.307-3.518-49.081-3.481-49.3a1 1 0 0 1 1.955-.083l12.8 50.1 17.8-4.155c-2.632-6.973-6.617-25.07-10.478-42.6-3.516-15.968-6.837-31.05-8.872-36.624-4.166-11.41-20.724-12.283-20.89-12.291a1 1 0 0 1 -.564-.205l-9.357-7.159a11.331 11.331 0 0 0 -6.854-2.323h-9.256a11.331 11.331 0 0 0 -6.854 2.323l-9.349 7.159a1 1 0 0 1 -.564.205c-.166.007-16.724.881-20.89 12.291-2.035 5.574-5.355 20.654-8.871 36.619-3.861 17.532-7.844 35.632-10.479 42.605l17.8 4.155 12.8-50.1a.957.957 0 0 1 1.008-.751 1 1 0 0 1 .946.827c.039.242 4.081 24.19-3.45 49.321a55.751 55.751 0 0 0 21.406 4.39c7.438-.118 9.613-6.273 10.13-11.417a1 1 0 0 1 .995-.904z" fill="#2f3a5a"/><path d="m72.6 9.135s7.156 3.982 4.448 19.652-13.159 42.368-13.159 42.368 24.376-28.826 24.376-35.4-5.223-8.319-5.223-8.319l5.223-2.708s-2.126-10.757-15.665-15.593z" fill="#da2a47"/><path d="m63.888 72.155a1 1 0 0 1 -.931-1.364c.1-.266 10.442-26.784 13.1-42.174 2.559-14.8-3.883-18.572-3.948-18.608a1 1 0 0 1 .822-1.816c13.917 4.97 16.223 15.876 16.314 16.338a1 1 0 0 1 -.521 1.082l-3.562 1.847a9.641 9.641 0 0 1 4.1 8.293c0 6.749-22.094 33.07-24.613 36.049a1 1 0 0 1 -.761.353zm12.451-60.276c1.726 3.038 3.2 8.326 1.69 17.078-1.942 11.242-7.9 28.264-11.108 36.984 9.271-11.338 20.345-26.2 20.345-30.189 0-5.791-4.494-7.355-4.54-7.371a1 1 0 0 1 -.144-1.836l4.518-2.345c-.63-2.078-3.053-8.172-10.761-12.321z" fill="#2f3a5a"/><path d="m55.156 9.135s-7.02 3.982-4.311 19.652 13.155 42.368 13.155 42.368-24.376-28.826-24.376-35.4 5.223-8.319 5.223-8.319l-5.223-2.708s1.989-10.757 15.532-15.593z" fill="#da2a47"/><path d="m64 72.155a1 1 0 0 1 -.765-.354c-2.52-2.979-24.612-29.3-24.612-36.049a9.641 9.641 0 0 1 4.1-8.293l-3.562-1.847a1 1 0 0 1 -.523-1.07c.086-.462 2.254-11.376 16.18-16.35a1 1 0 0 1 .839 1.808c-.094.056-6.355 3.989-3.827 18.616 2.659 15.39 13 41.908 13.1 42.174a1 1 0 0 1 -.93 1.365zm-23.21-47.955 4.518 2.342a1 1 0 0 1 -.144 1.836c-.181.063-4.54 1.631-4.54 7.371 0 3.991 11.074 18.851 20.343 30.189-3.21-8.717-9.167-25.738-11.108-36.98-1.519-8.785-.063-14.079 1.634-17.111-7.673 4.137-10.087 10.291-10.703 12.353z" fill="#2f3a5a"/><path d="m64 108.2a1 1 0 0 1 -1-1v-36.045a1 1 0 0 1 2 0v36.045a1 1 0 0 1 -1 1z" fill="#2f3a5a"/><circle cx="70.407" cy="80.36" fill="#84879c" r="1.78"/><path d="m70.407 83.14a2.78 2.78 0 1 1 2.78-2.78 2.783 2.783 0 0 1 -2.78 2.78zm0-3.559a.78.78 0 1 0 .78.779.78.78 0 0 0 -.78-.779z" fill="#2f3a5a"/><circle cx="70.407" cy="91.813" fill="#84879c" r="1.78"/><path d="m70.407 94.593a2.78 2.78 0 1 1 2.78-2.779 2.782 2.782 0 0 1 -2.78 2.779zm0-3.559a.78.78 0 1 0 .78.78.78.78 0 0 0 -.78-.78z" fill="#2f3a5a"/><circle cx="70.407" cy="103.266" fill="#84879c" r="1.78"/><path d="m70.407 106.046a2.78 2.78 0 1 1 2.78-2.779 2.782 2.782 0 0 1 -2.78 2.779zm0-3.559a.78.78 0 1 0 .78.78.78.78 0 0 0 -.78-.78z" fill="#2f3a5a"/></svg>
