<svg height="512" viewBox="0 0 512 512" width="512" xmlns="http://www.w3.org/2000/svg"><g id="filled_outline" data-name="filled outline"><path d="m368 152 8 16h-240l8-16 20.579-68.6a16 16 0 0 1 15.321-11.4h152.2a16 16 0 0 1 15.325 11.4z" fill="#dbdbdb"/><path d="m336 152h-160l9.06-48.34 13.72-73.13a8 8 0 0 1 7.86-6.53h98.72a8 8 0 0 1 7.86 6.53l13.72 73.13z" fill="#834b10"/><path d="m144 360-8-24h240l-8 24-20.579 68.6a16 16 0 0 1 -15.321 11.4h-152.2a16 16 0 0 1 -15.325-11.4z" fill="#dbdbdb"/><path d="m336 360-9.06 48.34-13.72 73.13a8 8 0 0 1 -7.86 6.53h-98.72a8 8 0 0 1 -7.86-6.53l-13.72-73.13-9.06-48.34z" fill="#834b10"/><path d="m176 360h160l-9.06 48.34a168.51 168.51 0 0 1 -141.88 0z" fill="#70400e"/><path d="m336 152h-160l9.06-48.34a168.51 168.51 0 0 1 141.88 0z" fill="#70400e"/><path d="m434 280h-34v-48h34a6 6 0 0 1 6 6v36a6 6 0 0 1 -6 6z" fill="#dbdbdb"/><circle cx="256" cy="256" fill="#ebebeb" r="152"/><circle cx="256" cy="256" fill="#dbdbdb" r="136"/><g fill="#4799cf"><path d="m320 328a7.976 7.976 0 0 1 -5.657-2.343l-64-64a8 8 0 0 1 0-11.314l40-40a8 8 0 0 1 11.314 11.314l-34.343 34.343 58.343 58.343a8 8 0 0 1 -5.657 13.657z"/><path d="m144.245 248.525-15.966-1.05c4.41-66.996 60.512-119.475 127.721-119.475v16c-58.809 0-107.9 45.913-111.755 104.525z"/><path d="m136.536 302.05a127.43 127.43 0 0 1 -7.409-28.993l15.861-2.114a111.331 111.331 0 0 0 6.476 25.349z"/><path d="m160.6 341.336a128.438 128.438 0 0 1 -17.827-25.6l14.146-7.478a112.335 112.335 0 0 0 15.6 22.4z"/><path d="m196.262 369.232a128.3 128.3 0 0 1 -25.6-17.827l10.67-11.922a112.316 112.316 0 0 0 22.4 15.6z"/><path d="m238.943 382.873a127.485 127.485 0 0 1 -28.992-7.408l5.757-14.929a111.412 111.412 0 0 0 25.349 6.477z"/><path d="m256 384v-16c55.915 0 103.641-41.725 111.013-97.057l15.86 2.114c-8.428 63.248-62.973 110.943-126.873 110.943z"/><path d="m384 256h-16a112.917 112.917 0 0 0 -2.24-22.408l15.679-3.184a128.831 128.831 0 0 1 2.561 25.592z"/><path d="m360.536 215.708a111.787 111.787 0 0 0 -14.936-26.914l12.792-9.61a127.772 127.772 0 0 1 17.068 30.766z"/><path d="m330.665 172.517a112.316 112.316 0 0 0 -22.4-15.6l7.476-14.146a128.3 128.3 0 0 1 25.6 17.827z"/><path d="m293.334 150.371a111.486 111.486 0 0 0 -22.391-5.384l2.114-15.86a127.6 127.6 0 0 1 25.609 6.158z"/></g><circle cx="256" cy="256" fill="#c3c3c3" r="24"/><path d="m232 256a24 24 0 0 0 34.341 21.655l48 48a8 8 0 0 0 11.314-11.314l-48-48a23.973 23.973 0 0 0 0-20.682l24-24a8 8 0 0 0 -11.314-11.314l-24 24a24 24 0 0 0 -34.341 21.655zm16 0a8 8 0 1 1 8 8 8.009 8.009 0 0 1 -8-8z"/><path d="m448 274v-36a14.015 14.015 0 0 0 -14-14h-21.217a159.636 159.636 0 0 0 -37.051-74.007c-.026-.1-.041-.2-.069-.292l-20.58-68.6a23.845 23.845 0 0 0 -22.983-17.101h-4.463l-6.554-34.944a16.009 16.009 0 0 0 -15.723-13.056h-98.72a16.009 16.009 0 0 0 -15.723 13.055l-6.554 34.945h-4.463a23.845 23.845 0 0 0 -22.983 17.1l-20.58 68.6c-.028.1-.043.195-.069.292a159.668 159.668 0 0 0 0 212.014c.026.1.041.2.069.292l20.58 68.6a23.845 23.845 0 0 0 22.983 17.102h4.463l6.554 34.944a16.009 16.009 0 0 0 15.723 13.056h98.72a16.009 16.009 0 0 0 15.723-13.055l6.554-34.945h4.463a23.845 23.845 0 0 0 22.983-17.1l20.58-68.6c.028-.1.043-.195.069-.292a159.636 159.636 0 0 0 37.051-74.008h21.217a14.015 14.015 0 0 0 14-14zm-115.9-194a7.944 7.944 0 0 1 7.657 5.7l12.856 42.853a160.579 160.579 0 0 0 -14.738-9.964l-7.237-38.589zm-125.46-48 98.717.005 14.5 77.306a159.824 159.824 0 0 0 -127.713 0zm-34.4 53.7a7.945 7.945 0 0 1 7.66-5.7h1.462l-7.237 38.588a160.579 160.579 0 0 0 -14.738 9.964zm83.76 26.3c79.4 0 144 64.6 144 144s-64.6 144-144 144-144-64.6-144-144 64.6-144 144-144zm-76.1 320a7.944 7.944 0 0 1 -7.657-5.7l-12.856-42.853a160.579 160.579 0 0 0 14.738 9.964l7.237 38.589zm125.46 48h-98.717l-14.5-77.306a159.824 159.824 0 0 0 127.713 0zm34.4-53.7a7.945 7.945 0 0 1 -7.66 5.7h-1.462l7.237-38.588a160.579 160.579 0 0 0 14.738-9.964zm92.24-154.3h-16.8q.787-7.9.8-16t-.8-16h16.8z"/><path d="m256 144v-16c-67.209 0-123.311 52.479-127.721 119.475l15.966 1.05c3.855-58.612 52.946-104.525 111.755-104.525z"/><path d="m144.988 270.943-15.861 2.114a127.43 127.43 0 0 0 7.409 28.993l14.928-5.758a111.331 111.331 0 0 1 -6.476-25.349z"/><path d="m172.517 330.665a112.335 112.335 0 0 1 -15.6-22.4l-14.146 7.478a128.438 128.438 0 0 0 17.827 25.6z"/><path d="m170.665 351.405a128.3 128.3 0 0 0 25.6 17.827l7.476-14.146a112.316 112.316 0 0 1 -22.4-15.6z"/><path d="m209.951 375.465a127.485 127.485 0 0 0 28.992 7.408l2.114-15.86a111.412 111.412 0 0 1 -25.349-6.477z"/><path d="m256 368v16c63.9 0 118.445-47.695 126.873-110.943l-15.86-2.114c-7.372 55.332-55.098 97.057-111.013 97.057z"/><path d="m368 256h16a128.831 128.831 0 0 0 -2.561-25.592l-15.679 3.184a112.917 112.917 0 0 1 2.24 22.408z"/><path d="m375.464 209.95a127.772 127.772 0 0 0 -17.064-30.766l-12.792 9.61a111.787 111.787 0 0 1 14.932 26.914z"/><path d="m341.335 160.6a128.3 128.3 0 0 0 -25.6-17.827l-7.476 14.146a112.316 112.316 0 0 1 22.4 15.6z"/><path d="m298.666 135.285a127.6 127.6 0 0 0 -25.609-6.158l-2.114 15.86a111.486 111.486 0 0 1 22.391 5.384z"/></g></svg>